<svg width="17" height="23" viewBox="0 0 17 23" fill="none" xmlns="http://www.w3.org/2000/svg">
<path d="M13.651 0H3.3369C1.49251 0 0 1.4145 0 3.1625V20.976C0 21.781 0.48536 22.494 1.26195 22.816C2.03854 23.138 2.9122 23.0115 3.54318 22.471C4.12562 21.9765 4.70806 21.4705 5.30264 20.953C6.29764 20.079 7.30478 19.2165 8.29978 18.4C8.40899 18.308 8.56673 18.308 8.67594 18.4C9.67095 19.2165 10.666 20.079 11.661 20.9415C12.2555 21.459 12.8501 21.9765 13.4568 22.4825C13.8572 22.816 14.3548 23 14.8644 23C15.1556 23 15.459 22.9425 15.7381 22.816C16.5146 22.4825 17 21.781 17 20.976V3.15101C16.9879 1.41451 15.4954 0 13.651 0Z" fill="#9295E2"/>
</svg>
