<svg width="18" height="21" viewBox="0 0 18 21" fill="none" xmlns="http://www.w3.org/2000/svg">
<path d="M11.833 2.56783L11.8321 3.06783L12.3321 3.06869L16.0988 3.07514C16.803 3.07635 17.31 3.59981 17.3091 4.16945L17.307 5.44323C17.3069 5.46879 17.2967 5.4987 17.2658 5.52737C17.2342 5.55662 17.1846 5.57991 17.1219 5.5798L0.685653 5.55163C0.622989 5.55152 0.573436 5.52806 0.541976 5.49871C0.511136 5.46993 0.500991 5.43998 0.501033 5.41442L0.503131 4.14064C0.504069 3.571 1.01282 3.04929 1.71704 3.05049L5.48369 3.05695L5.98368 3.05781L5.98451 2.55781L5.98556 1.92092C5.98678 1.17538 6.64905 0.51138 7.54241 0.512912L10.2818 0.517607C11.1752 0.519138 11.8352 1.1854 11.834 1.93094L11.833 2.56783ZM10.9624 3.06634L11.4624 3.0672L11.4633 2.5672L11.4643 1.93031C11.4654 1.26952 10.9002 0.792449 10.2813 0.791388L7.54196 0.786693C6.9231 0.785632 6.35634 1.26076 6.35525 1.92155L6.3542 2.55844L6.35338 3.05844L6.85337 3.0593L10.9624 3.06634Z" fill="black" stroke="black"/>
<path d="M2.22373 18.6953L2.22373 18.6953L1.69956 7.76358L5.27216 7.7697C4.75318 7.87883 4.34368 8.32557 4.34275 8.8914L4.32884 17.3325C4.32776 17.9862 4.87243 18.4828 5.5029 18.4839C6.13337 18.4849 6.67968 17.9902 6.68076 17.3366L6.69467 8.89543C6.6956 8.3296 6.28758 7.88145 5.76896 7.77055L8.65196 7.77548C8.13298 7.88461 7.72348 8.33136 7.72255 8.89719L7.70864 17.3383C7.70756 17.992 8.25224 18.4886 8.88271 18.4896C9.51318 18.4907 10.0595 17.996 10.0606 17.3423L10.0745 8.90122C10.0754 8.33539 9.66738 7.88724 9.14876 7.77633L12.0318 7.78127C11.5128 7.8904 11.1033 8.33715 11.1024 8.90298L11.0884 17.3441C11.0874 17.9978 11.632 18.4944 12.2625 18.4954C12.893 18.4965 13.4393 18.0018 13.4404 17.3481L13.4543 8.90701C13.4552 8.34118 13.0472 7.89303 12.5286 7.78212L16.1012 7.78824L15.541 18.7181L15.541 18.7182C15.5022 19.4751 14.848 20.0971 14.0127 20.0957L3.74742 20.0781C2.91217 20.0767 2.25998 19.4524 2.22373 18.6953ZM16.1172 7.47605L16.1172 7.47607C16.1172 7.47606 16.1172 7.47605 16.1172 7.47605Z" fill="black" stroke="black"/>
</svg>
