<svg width="22" height="16" viewBox="0 0 22 16" fill="none" xmlns="http://www.w3.org/2000/svg">
<path fill-rule="evenodd" clip-rule="evenodd" d="M16.6494 13.6128V6.33666L10.8053 2.30495L4.96113 6.33666V13.6128H16.6494ZM17.6235 15.0913H3.98711C3.72878 15.0913 3.48103 15.0134 3.29837 14.8747C3.1157 14.7361 3.01308 14.5481 3.01308 14.352V7.69904H0.0910034L10.1498 0.759234C10.3291 0.635398 10.5628 0.566772 10.8053 0.566772C11.0477 0.566772 11.2815 0.635398 11.4608 0.759234L21.5196 7.69904H18.5975V14.352C18.5975 14.5481 18.4949 14.7361 18.3122 14.8747C18.1295 15.0134 17.8818 15.0913 17.6235 15.0913Z" fill="#808191"/>
<path d="M6.90918 9.91671C7.68417 9.91671 8.42741 10.1504 8.97541 10.5662C9.5234 10.9821 9.83126 11.5462 9.83126 12.1344H6.90918V9.91671Z" fill="#808191"/>
<path d="M6.90918 6.95982C8.71748 6.95982 10.4517 7.505 11.7304 8.47541C13.009 9.44583 13.7274 10.762 13.7274 12.1344H11.7793C11.7793 11.1541 11.2662 10.214 10.3529 9.52083C9.43956 8.82768 8.20082 8.43827 6.90918 8.43827V6.95982Z" fill="#808191"/>
</svg>
