<svg width="21" height="21" viewBox="0 0 21 21" fill="none" xmlns="http://www.w3.org/2000/svg">
<path d="M1 5C1 2.79086 2.79086 1 5 1H16C18.2091 1 20 2.79086 20 5V15.9052C20 18.1143 18.2091 19.9052 16 19.9052H5C2.79086 19.9052 1 18.1143 1 15.9052V5Z" stroke="#6E5DE7" stroke-width="2"/>
<path d="M15.3669 4.22271L10.5302 4.25094C10.402 4.25159 10.2863 4.20726 10.2086 4.12772C10.1308 4.04817 10.0974 3.93991 10.1155 3.82672C10.1337 3.71352 10.202 3.60467 10.3055 3.52406C10.409 3.44346 10.5391 3.3977 10.6673 3.39685L15.504 3.36862C15.5676 3.3682 15.6288 3.37884 15.684 3.39993C15.7393 3.42103 15.7877 3.45217 15.8262 3.49156C15.8648 3.53096 15.8929 3.57785 15.909 3.62954C15.925 3.68123 15.9286 3.73672 15.9196 3.79284C15.9105 3.84895 15.8891 3.90458 15.8564 3.95656C15.8238 4.00854 15.7806 4.05584 15.7292 4.09577C15.6779 4.13569 15.6195 4.16745 15.5573 4.18923C15.4951 4.21101 15.4304 4.22239 15.3669 4.22271L15.3669 4.22271Z" fill="#6E5DE7"/>
<path d="M17.4044 6.42971L9.85972 6.45816C9.81461 6.45833 9.77117 6.45064 9.7319 6.43553C9.69263 6.42042 9.65829 6.39819 9.63084 6.3701C9.6034 6.34201 9.58338 6.30862 9.57193 6.27183C9.56049 6.23504 9.55784 6.19557 9.56414 6.15567C9.57044 6.11578 9.58557 6.07625 9.60865 6.03932C9.63174 6.0024 9.66233 5.96882 9.69869 5.94049C9.73504 5.91216 9.77645 5.88964 9.82054 5.87422C9.86464 5.85879 9.91055 5.85077 9.95567 5.8506L17.5003 5.82215C17.5455 5.82191 17.589 5.82955 17.6283 5.84463C17.6677 5.85971 17.7021 5.88193 17.7296 5.91003C17.7571 5.93812 17.7772 5.97154 17.7886 6.00836C17.8001 6.04519 17.8028 6.0847 17.7965 6.12463C17.7902 6.16457 17.775 6.20415 17.7519 6.2411C17.7288 6.27806 17.6981 6.31166 17.6617 6.34C17.6253 6.36834 17.5838 6.39085 17.5397 6.40624C17.4955 6.42163 17.4495 6.42961 17.4044 6.42971L17.4044 6.42971Z" fill="#6E5DE7"/>
<path d="M3.33718 6.46348C4.07571 7.47899 5.61336 7.71464 6.77162 6.98984C7.92988 6.26503 8.27014 4.85423 7.53162 3.83873C6.79309 2.82323 5.25544 2.58757 4.09718 3.31238C2.93892 4.03718 2.59866 5.44798 3.33718 6.46348Z" fill="#6E5DE7"/>
<path d="M15.0352 10.4043L1.98957 10.4805C1.8727 10.4692 1.7711 10.4197 1.70414 10.3414C1.63718 10.2631 1.60954 10.1615 1.62649 10.0559C1.64344 9.95038 1.70379 9.84825 1.79604 9.76903C1.8883 9.68981 2.006 9.63903 2.1267 9.62638L15.1724 9.55023C15.2892 9.5615 15.3908 9.611 15.4578 9.68929C15.5248 9.76758 15.5524 9.86919 15.5354 9.97475C15.5185 10.0803 15.4581 10.1824 15.3659 10.2617C15.2736 10.3409 15.1559 10.3917 15.0352 10.4043Z" fill="#6E5DE7"/>
<path d="M17.4213 12.6165L3.98866 12.7189C3.90246 12.7108 3.82759 12.6745 3.77832 12.6169C3.72904 12.5593 3.7088 12.4845 3.72147 12.4067C3.73414 12.329 3.77882 12.2537 3.84699 12.1952C3.91517 12.1367 4.00208 12.0992 4.09114 12.0897L17.5237 11.9872C17.6099 11.9953 17.6848 12.0317 17.7341 12.0892C17.7834 12.1468 17.8036 12.2216 17.7909 12.2994C17.7783 12.3772 17.7336 12.4525 17.6654 12.5109C17.5972 12.5694 17.5103 12.607 17.4213 12.6165Z" fill="#6E5DE7"/>
<path d="M14.3118 16.4366L4.01552 16.5433C3.92333 16.5349 3.84335 16.4963 3.79083 16.435C3.7383 16.3737 3.71691 16.2939 3.73073 16.2109C3.74455 16.1278 3.7926 16.0473 3.86574 15.9847C3.93888 15.9221 4.03199 15.8818 4.12731 15.8714L14.4236 15.7647C14.5158 15.7732 14.5958 15.8117 14.6483 15.873C14.7008 15.9343 14.7222 16.0141 14.7084 16.0971C14.6946 16.1802 14.6465 16.2607 14.5734 16.3233C14.5003 16.3859 14.4072 16.4262 14.3118 16.4366Z" fill="#6E5DE7"/>
</svg>
