<svg width="24" height="17" viewBox="0 0 24 17" fill="none" xmlns="http://www.w3.org/2000/svg">
<path d="M7.6 16V4.33333C7.6 3.55836 7.6 3.17087 7.71244 2.85295C8.01759 1.99022 8.90709 1.31635 10.0459 1.08519C10.4655 1 10.977 1 12 1C13.023 1 13.5345 1 13.9541 1.08519C15.0929 1.31635 15.9824 1.99022 16.2876 2.85295C16.4 3.17087 16.4 3.55836 16.4 4.33333V16M4.52 16H19.48C20.7121 16 21.3282 16 21.7988 15.8183C22.2127 15.6586 22.5493 15.4036 22.7602 15.09C23 14.7335 23 14.2668 23 13.3333V7C23 6.06658 23 5.59987 22.7602 5.24335C22.5493 4.92975 22.2127 4.67478 21.7988 4.51499C21.3282 4.33333 20.7121 4.33333 19.48 4.33333H4.52C3.28788 4.33333 2.67183 4.33333 2.20122 4.51499C1.78726 4.67478 1.45071 4.92975 1.23979 5.24335C1 5.59987 1 6.06658 1 7V13.3333C1 14.2668 1 14.7335 1.23979 15.09C1.45071 15.4036 1.78726 15.6586 2.20122 15.8183C2.67183 16 3.28788 16 4.52 16Z" stroke="#808191" stroke-width="2" stroke-linecap="round" stroke-linejoin="round"/>
</svg>
